PathFileType	4	(X/Y/Z)	/Users/itak/Documents/Research/Walk-IL/dataset/trc/00396_00012.trc
DataRate	CameraRate	NumFrames	NumMarkers	Units	OrigDataRate	OrigDataStartFrame	OrigNumFrames
100.000000	100.000000	4	53	mm	100.000000	218	582
Frame#	Time	RPSI			LPSI			L3			STRN			T10			C7			CLAV			RBAK			LBAK			LSHO			LUPA			LAEL			LAOL			LWTS			LWPS			LFRA			LIFD			LHPS			LHTS			RSHO			RUPA			RAEL			RAOL			RWTS			RWPS			RFRA			RIFD			RHTS			RHPS			RBHD			LFHD			RFHD			LBHD			LHIP			RASI			LASI			LKNE			LTHI			LANK			LTIP			LTOE			LMT1			LMT5			LHEE			RKNE			RTHI			RANK			RTIP			RTOE			RMT1			RMT5			RHEE			RHIP			
		X1	Y1	Z1	X2	Y2	Z2	X3	Y3	Z3	X4	Y4	Z4	X5	Y5	Z5	X6	Y6	Z6	X7	Y7	Z7	X8	Y8	Z8	X9	Y9	Z9	X10	Y10	Z10	X11	Y11	Z11	X12	Y12	Z12	X13	Y13	Z13	X14	Y14	Z14	X15	Y15	Z15	X16	Y16	Z16	X17	Y17	Z17	X18	Y18	Z18	X19	Y19	Z19	X20	Y20	Z20	X21	Y21	Z21	X22	Y22	Z22	X23	Y23	Z23	X24	Y24	Z24	X25	Y25	Z25	X26	Y26	Z26	X27	Y27	Z27	X28	Y28	Z28	X29	Y29	Z29	X30	Y30	Z30	X31	Y31	Z31	X32	Y32	Z32	X33	Y33	Z33	X34	Y34	Z34	X35	Y35	Z35	X36	Y36	Z36	X37	Y37	Z37	X38	Y38	Z38	X39	Y39	Z39	X40	Y40	Z40	X41	Y41	Z41	X42	Y42	Z42	X43	Y43	Z43	X44	Y44	Z44	X45	Y45	Z45	X46	Y46	Z46	X47	Y47	Z47	X48	Y48	Z48	X49	Y49	Z49	X50	Y50	Z50	X51	Y51	Z51	X52	Y52	Z52	X53	Y53	Z53	

219	2.18	1355.41650390625	940.9750366210938	97.14163208007812	1231.1767578125	929.6536865234375	142.4906158447266	1290.771606445312	1021.353698730469	122.730339050293	1218.9345703125	1167.53173828125	-103.5809707641602	1285.078491210938	1123.422973632812	140.7327728271484	1258.625244140625	1371.0576171875	95.2005615234375	1230.8427734375	1287.590576171875	-53.74187850952148	1331.63330078125	1228.3291015625	133.6264495849609	1163.142944335938	1336.35400390625	137.4441223144531	1094.477905273438	1351.617065429688	63.0926628112793	1028.873657226562	1235.432495117188	104.1483459472656	987.3746337890625	1051.099365234375	77.31021881103516	1051.685180664062	1008.057922363281	117.3650817871094	985.6744995117188	990.7924194335938	-126.0000839233398	923.373046875	943.4891967773438	-97.59719848632812	957.1376953125	995.4201049804688	14.54196643829346	962.2802734375	891.6203002929688	-268.501708984375	910.3599853515625	912.8699951171875	-180.5138549804688	948.1915893554688	955.9637451171875	-211.4193878173828	1399.811157226562	1347.087524414062	12.25586795806885	1455.790161132812	1289.069946289062	27.99633026123047	1499.522827148438	1038.163940429688	92.60965728759766	1406.907470703125	1031.746337890625	104.975341796875	1493.764892578125	793.7767333984375	37.91843795776367	1551.24462890625	802.3198852539062	84.07988739013672	1522.639282226562	972.95556640625	88.17432403564453	1505.690551757812	623.56298828125	99.14119720458984	1517.359985351562	691.05419921875	63.36476135253906	1555.894653320312	719.25146484375	114.453971862793	1336.489990234375	1553.48779296875	1.176266074180603	1142.944213867188	1555.077758789062	-51.87644577026367	1253.976318359375	1562.35107421875	-103.6868743896484	1199.65966796875	1540.80859375	85.592529296875	1095.329345703125	912.6300048828125	96.70632171630859	1337.6064453125	939.674560546875	-125.8095397949219	1092.252685546875	912.721435546875	-26.81085968017578	1187.853271484375	423.3344116210938	46.32492828369141	1146.992065429688	563.8220825195312	52.21096038818359	1300.530395507812	30.7725944519043	225.420166015625	1242.238647460938	206.0520477294922	134.1463470458984	1382.047729492188	23.44401359558105	14.90679454803467	1404.474487304688	29.97200965881348	99.06153869628906	1297.700927734375	29.61634826660156	98.74578094482422	1350.932495117188	34.00700759887695	269.3198852539062	1384.807250976562	480.5005798339844	-227.8592987060547	1412.441528320312	726.084716796875	-153.1551818847656	1363.995849609375	65.42356109619141	-351.1997985839844	1366.265869140625	367.2090454101562	-279.6232604980469	1232.183959960938	121.2420425415039	-462.634521484375	1235.233032226562	88.15756988525391	-392.2293395996094	1333.930786132812	82.75627136230469	-417.4846496582031	1346.9619140625	19.87343597412109	-270.7148742675781	1435.141967773438	928.1744995117188	-22.17583084106445	
220	2.19	1355.205322265625	938.9039306640625	85.88863372802734	1231.792236328125	927.673095703125	133.3053894042969	1291.21728515625	1019.695617675781	112.9072494506836	1216.130249023438	1165.431518554688	-112.7097396850586	1285.180419921875	1121.514038085938	130.2826080322266	1258.913818359375	1369.212158203125	85.34873199462891	1228.948120117188	1285.535278320312	-63.09123229980469	1332.324096679688	1226.477416992188	123.1219863891602	1163.907104492188	1334.553100585938	129.015380859375	1094.169677734375	1349.639038085938	55.55246734619141	1029.621337890625	1233.218017578125	97.66319274902344	988.119384765625	1048.917114257812	71.15919494628906	1053.200073242188	1005.87890625	110.1759414672852	983.4578857421875	989.3795776367188	-132.2276458740234	921.662353515625	942.1804809570312	-103.0254058837891	956.8564453125	993.585693359375	8.706161499023438	956.8941650390625	890.9483642578125	-274.7533569335938	907.2393188476562	913.1342163085938	-185.6667022705078	944.3912353515625	955.1941528320312	-217.2304077148438	1398.865844726562	1344.728515625	0.6409287452697754	1454.949462890625	1286.763793945312	15.79598236083984	1499.032592773438	1036.144165039062	81.12546539306641	1406.486206054688	1029.800659179688	94.41914367675781	1492.432250976562	791.5358276367188	27.7762565612793	1550.424560546875	800.2705078125	73.20747375488281	1522.036010742188	970.8778686523438	76.73809051513672	1505.4609375	621.537841796875	88.97483825683594	1516.487548828125	689.0296020507812	53.05764770507812	1555.557250976562	717.2759399414062	103.8209075927734	1335.807861328125	1551.368041992188	-9.65861701965332	1141.585205078125	1553.278198242188	-59.83518218994141	1251.798461914062	1560.3876953125	-113.3593292236328	1200.181762695312	1538.8212890625	76.68063354492188	1095.255004882812	910.6532592773438	89.746826171875	1334.069946289062	937.6795043945312	-136.5465240478516	1090.418212890625	910.6390991210938	-33.77447891235352	1188.045166015625	421.6462097167969	40.1974983215332	1146.668579101562	562.1509399414062	45.94558334350586	1301.852783203125	31.66477966308594	225.3206634521484	1243.011962890625	205.8718414306641	131.1784820556641	1381.922119140625	23.31856536865234	14.51458072662354	1404.774780273438	30.25103378295898	98.53133392333984	1298.324340820312	29.82894706726074	98.71527862548828	1352.368896484375	35.78983306884766	269.0728759765625	1379.496337890625	478.5315856933594	-239.9752960205078	1408.882202148438	724.4115600585938	-165.2238311767578	1352.948974609375	64.79774475097656	-367.0355529785156	1358.828369140625	366.0414733886719	-292.2613220214844	1217.146118164062	122.6875152587891	-472.9745178222656	1222.701171875	88.97586059570312	-402.8406066894531	1320.780517578125	83.5701904296875	-429.5567321777344	1338.60400390625	18.91988182067871	-286.2091369628906	1433.098388671875	925.970458984375	-34.2174186706543	
221	2.2	1354.816040039062	937.0328979492188	74.50308227539062	1232.2373046875	925.876708984375	123.9440536499023	1291.451538085938	1018.136657714844	102.931037902832	1213.279541015625	1163.446899414062	-121.9270858764648	1285.091552734375	1119.744506835938	119.779167175293	1259.075439453125	1367.445556640625	75.41007232666016	1226.976806640625	1283.572387695312	-72.5234375	1332.779052734375	1224.64599609375	112.5249328613281	1164.513793945312	1332.838989257812	120.4348678588867	1093.776977539062	1347.782958984375	47.88008117675781	1030.357543945312	1231.132446289062	91.03449249267578	988.926025390625	1046.759155273438	64.94583129882812	1054.820190429688	1003.87060546875	102.9693298339844	981.2684936523438	987.386474609375	-138.3559875488281	919.9663696289062	940.3544311523438	-108.1767501831055	956.694091796875	991.4640502929688	2.974676847457886	951.3855590820312	889.2564086914062	-280.5377807617188	904.421142578125	912.712158203125	-190.4209289550781	940.5842895507812	953.5831909179688	-222.8062286376953	1397.803955078125	1342.447265625	-10.97570514678955	1453.989990234375	1284.525146484375	3.553897619247437	1498.439575195312	1034.126098632812	69.36420440673828	1405.978271484375	1027.819458007812	83.57757568359375	1490.9814453125	789.148681640625	17.2950611114502	1549.534790039062	798.226806640625	61.83244323730469	1521.3349609375	968.7977905273438	64.96986389160156	1505.18603515625	619.3991088867188	78.24478149414062	1515.574462890625	686.88916015625	42.17880630493164	1555.201904296875	715.2652587890625	92.52836608886719	1335.009887695312	1549.36328125	-20.49864768981934	1140.144897460938	1551.586669921875	-67.79945373535156	1249.523071289062	1558.566528320312	-123.0205764770508	1200.633911132812	1536.921508789062	67.75106048583984	1095.083129882812	908.7333984375	82.5216064453125	1330.376831054688	935.7596435546875	-147.2729034423828	1088.545288085938	908.583740234375	-40.88936614990234	1188.273315429688	420.0175170898438	34.01235198974609	1146.399291992188	560.528076171875	39.61260223388672	1303.251953125	32.81289672851562	225.2003173828125	1243.835083007812	205.8465118408203	128.2152709960938	1381.780395507812	23.19047164916992	14.12584114074707	1405.089111328125	30.62670707702637	97.93959808349609	1298.990356445312	30.11423110961914	98.69062805175781	1353.949829101562	37.95792770385742	268.7639770507812	1373.716674804688	476.7129516601562	-252.0023651123047	1404.876586914062	722.9439697265625	-177.5773468017578	1342.965698242188	63.65448760986328	-380.2955017089844	1351.388671875	364.6145324707031	-304.274169921875	1203.8740234375	122.4827880859375	-481.644775390625	1211.611694335938	88.54579925537109	-411.7142944335938	1309.094970703125	83.24693298339844	-439.5455627441406	1331.048095703125	17.95677185058594	-299.1541748046875	1430.9580078125	924.1148071289062	-46.43671417236328	
222	2.21	1354.283813476562	935.3952026367188	62.93852233886719	1232.55908203125	924.3257446289062	114.4022064208984	1291.47900390625	1016.6552734375	92.70763397216797	1210.3798828125	1161.609008789062	-131.23486328125	1284.917846679688	1118.143676757812	109.2774963378906	1259.102416992188	1365.770874023438	65.39191436767578	1224.915649414062	1281.723510742188	-82.03851318359375	1333.005126953125	1222.85009765625	101.8206939697266	1164.974487304688	1331.2275390625	111.7141799926758	1093.286499023438	1346.065551757812	40.07995223999023	1031.050659179688	1229.199951171875	84.26961517333984	989.7500610351562	1044.638061523438	58.68578720092773	1056.509643554688	1002.053527832031	95.75386810302734	979.1077880859375	984.8468627929688	-144.38916015625	918.2837524414062	938.0297241210938	-113.0600662231445	956.665771484375	989.0609741210938	-2.652399063110352	945.8385620117188	886.5430908203125	-285.8451538085938	901.8659057617188	911.55029296875	-194.8195190429688	936.7952270507812	951.134033203125	-228.1459503173828	1396.628662109375	1340.282592773438	-22.61101722717285	1452.908203125	1282.379028320312	-8.740422248840332	1497.73828125	1032.12841796875	57.30903244018555	1405.378662109375	1025.835815429688	72.45638275146484	1489.397216796875	786.65966796875	6.432897090911865	1548.56201171875	796.2174072265625	49.92880630493164	1520.529541015625	966.7434692382812	52.8522834777832	1504.841430664062	617.2070922851562	66.93341064453125	1514.594848632812	684.6942749023438	30.71399688720703	1554.809204101562	713.2632446289062	80.56715393066406	1334.088745117188	1547.500244140625	-31.35027122497559	1138.608642578125	1550.034057617188	-75.78202819824219	1247.142456054688	1556.914672851562	-132.6705017089844	1201.0048828125	1535.140991210938	58.79867172241211	1094.834594726562	906.9297485351562	75.04841613769531	1326.529296875	933.9185791015625	-158.0308074951172	1086.62109375	906.6062622070312	-48.17880249023438	1188.521484375	418.4704284667969	27.74276924133301	1146.164916992188	558.988525390625	33.1761474609375	1304.668212890625	34.27020645141602	225.0416870117188	1244.635009765625	206.0121459960938	125.2216644287109	1381.622680664062	23.06177520751953	13.75113010406494	1405.390014648438	31.10041236877441	97.2957763671875	1299.64697265625	30.4684009552002	98.6585693359375	1355.604248046875	40.55584716796875	268.3665771484375	1367.47802734375	475.0641784667969	-263.9337158203125	1400.396728515625	721.6619262695312	-190.181884765625	1334.164428710938	62.01473999023438	-391.1839599609375	1343.918823242188	362.9450378417969	-315.6981201171875	1192.267944335938	120.5557327270508	-488.8067626953125	1201.95849609375	86.83316040039062	-418.9928588867188	1298.870239257812	81.69025421142578	-447.7412414550781	1324.528442382812	17.05281448364258	-309.7234497070312	1428.738037109375	922.570068359375	-58.85879898071289	
